<svg xmlns="http://www.w3.org/2000/svg" viewBox="0 0 32 32" width="32" height="32">
  <defs>
    <filter id="s" x="-20%" y="-20%" width="140%" height="140%">
      <feDropShadow dx="0" dy="1" stdDeviation="1" flood-color="#000" flood-opacity="0.3"/>
    </filter>
  </defs>
  <g fill="#1D8B88" filter="url(#s)">
    <ellipse cx="10" cy="10" rx="3.5" ry="4.2" transform="rotate(-20 10 10)"/>
    <ellipse cx="20" cy="10" rx="3.5" ry="4.2" transform="rotate(20 20 10)"/>
    <ellipse cx="8" cy="20" rx="3" ry="3.8" transform="rotate(-10 8 20)"/>
    <ellipse cx="22" cy="20" rx="3" ry="3.8" transform="rotate(10 22 20)"/>
    <path d="M16 26c-3.2 0-5.5-2.8-5.5-5.8 0-2 1-3.8 1-5.2 0-2.5 1.8-4.5 4.5-4.5s4.5 2 4.5 4.5c0 1.4 1 3.2 1 5.2 0 3-2.3 5.8-5.5 5.8z"/>
  </g>
</svg>
